<svg id="Calque_1" data-name="Calque 1" xmlns="http://www.w3.org/2000/svg" viewBox="0 0 491.46 457.52"><defs><style>.cls-1{fill:#f7a813;stroke:#f8a815;stroke-width:8px;}.cls-1,.cls-3{stroke-miterlimit:10;}.cls-2{fill:#f7f5f2;}.cls-3{fill:#f7a817;stroke:#f7a817;stroke-width:10px;}</style></defs><path class="cls-1" d="M531.9,437.1c-9.18,28-22.81,46.37-30.6,56.7a228.07,228.07,0,0,1-54.9,51.3c-5.94,4-32.88,21.58-72.9,32.4a270.83,270.83,0,0,1-61.2,9,297.12,297.12,0,0,1-63-3.6,254.43,254.43,0,0,1-57.6-17.1c-21-9.35-35.41-19.5-45.9-27-14.33-10.25-28.39-20.3-43.2-37.8A205.09,205.09,0,0,1,72,450.6c-5-11.76-11-26-13.5-45.9-2.14-17.34-.56-30.65.9-42.3a222.9,222.9,0,0,1,13.5-53.1,492.63,492.63,0,0,1,28.8-52.2c12.86-20.28,21.85-34.34,37.8-50.4s30.83-25.65,41.4-32.4c14.12-9,32.84-20.79,60.3-28.8a205.89,205.89,0,0,1,142.2,9.9c17.73,7.92,29.37,16.11,42.3,25.2,12.77,9,29.46,20.84,47.7,40.5a253.46,253.46,0,0,1,32.4,43.2A265.44,265.44,0,0,1,530.1,321c5.29,17.52,10.47,34.68,10.8,58.5A178.73,178.73,0,0,1,531.9,437.1Z" transform="translate(-53.46 -133.3)"/><path class="cls-2" d="M301.14,322.79,265.69,288.2l-32-35.4a254.53,254.53,0,0,0-47.56,12.87c-10.13,3.84-23,8.8-38,18.51a159,159,0,0,0-29.4,24.13c-6,6.35-13.65,14.7-19.89,27.36-7.37,15-8.67,27.81-9.51,37-.44,4.87-2.19,27.13,6.92,54.71a145.36,145.36,0,0,0,19.89,39.42c9.19,12.53,18.79,21,25.94,27.36a216.82,216.82,0,0,0,21.62,16.89,209.12,209.12,0,0,0,45.83,23.33C231.35,542.32,249,544.6,264,546.45c20.85,2.58,47,5.8,80.42,0,34.7-6,59-18.55,72.64-25.74a253.61,253.61,0,0,0,51-35.4c11.29-10.14,20.76-18.78,29.4-33,10.25-16.86,13.38-31.77,15.56-42.64,2.86-14.21,6.45-32.12.87-54.71-1.85-7.49-7.21-28.08-25.08-46.66A123.79,123.79,0,0,0,468,291.42c-9.31-6.34-17.57-10.21-33.73-17.7-20.22-9.38-30.64-14.14-45.83-17.7a166.49,166.49,0,0,0-18.16-3.22l-24.21,24.14Z" transform="translate(-53.46 -133.3)"/><path class="cls-3" d="M175,176.1a107.8,107.8,0,0,0-24.3-15.3c-9.24-4.2-16.9-6.07-25.2-8.1a204.06,204.06,0,0,0-25.2-4.5,204.43,204.43,0,0,0-12.6,30.6c-3.67,11.5-8.94,28.44-9,50.4a205.43,205.43,0,0,0,1.8,25.2c1.3,11.39,3,20.91,4.5,27.9" transform="translate(-53.46 -133.3)"/><path class="cls-3" d="M428.4,179.7a107.8,107.8,0,0,1,24.3-15.3c9.24-4.2,16.9-6.07,25.2-8.1a204.06,204.06,0,0,1,25.2-4.5,204.43,204.43,0,0,1,12.6,30.6c3.67,11.5,8.94,28.44,9,50.4a205.43,205.43,0,0,1-1.8,25.2c-1.3,11.39-3,20.91-4.5,27.9" transform="translate(-53.46 -133.3)"/><ellipse class="cls-1" cx="140.89" cy="265.35" rx="45.45" ry="68.85"/><ellipse class="cls-1" cx="360.14" cy="266.75" rx="45.45" ry="68.85"/></svg>